<svg xmlns="http://www.w3.org/2000/svg" width="38" height="38" viewBox="0 0 38 38">
    <defs>
        <style>
            .cls-1,.cls-3{fill:#fff}.cls-1{opacity:.1}.cls-2{fill:none}.cls-3{fill-rule:evenodd}
        </style>
    </defs>
    <g id="ic_twitter" transform="translate(-128 -494)">
        <circle id="Ellipse_424" cx="19" cy="19" r="19" class="cls-1" data-name="Ellipse 424" transform="translate(128 494)"/>
        <g id="Symbol_2" data-name="Symbol 2" transform="translate(136.444 502.444)">
            <path id="Rectangle_548" d="M0 0h21.111v21.111H0z" class="cls-2" data-name="Rectangle 548"/>
            <path id="Path_2" d="M44.685 19.123A12.205 12.205 0 0 0 57 6.809v-.587a9.534 9.534 0 0 0 2.111-2.228 9.736 9.736 0 0 1-2.463.7 4.563 4.563 0 0 0 1.877-2.346 10.758 10.758 0 0 1-2.7 1.056A4.189 4.189 0 0 0 52.66 2a4.406 4.406 0 0 0-4.34 4.34 2.286 2.286 0 0 0 .117.938A12.126 12.126 0 0 1 39.525 2.7a4.492 4.492 0 0 0-.586 2.228 4.66 4.66 0 0 0 1.877 3.636 3.954 3.954 0 0 1-1.994-.586A4.286 4.286 0 0 0 42.34 12.2a3.616 3.616 0 0 1-1.173.117 2 2 0 0 1-.821-.117 4.443 4.443 0 0 0 4.1 3.049 8.855 8.855 0 0 1-5.4 1.877A3.247 3.247 0 0 1 38 17.012a11.07 11.07 0 0 0 6.685 2.111" class="cls-3" data-name="Path 2" transform="translate(-38 -.681)"/>
        </g>
    </g>
</svg>
